<svg width="20" height="20" viewBox="0 0 20 20" fill="none" xmlns="http://www.w3.org/2000/svg">
<g clip-path="url(#clip0_36263_13085)">
<path d="M2.76587 13.0095C2.76587 13.0095 1.40212 17.2165 3.91537 17.64C6.42862 18.0635 10.5959 16.8552 15.2019 8.03849C15.2019 8.03849 14.6331 10.8067 14.3246 12.3937C14.2306 12.877 13.8091 13.2262 13.3169 13.2297L12.7024 13.2342C12.5216 13.2355 12.4531 13.467 12.6019 13.5697C13.1844 13.9725 13.9314 14.8452 14.0506 16.695C14.0761 17.0895 14.4916 17.3432 14.8521 17.1805C15.0134 17.1077 15.1706 16.9817 15.2909 16.7705C15.3919 16.5932 15.4386 16.3902 15.4464 16.1865L15.3631 15.4157C15.3191 15.0075 15.5636 14.6272 15.9496 14.4875C16.4951 14.29 17.2324 13.8752 17.5934 13.0262C17.6361 12.926 17.5369 12.8222 17.4344 12.859C17.0699 12.99 16.3761 13.2057 15.7724 13.2027C15.5929 13.2017 15.4576 13.0385 15.4831 12.861L16.3204 7.01124C16.3686 6.67499 16.1136 6.36924 15.7741 6.36224C15.5851 6.35824 15.3569 6.38174 15.0946 6.45999C14.5074 6.63499 13.9521 6.93149 13.6481 7.51624C12.2109 10.2805 5.32862 18.5672 2.76637 13.0097L2.76587 13.0095Z" fill="url(#paint0_linear_36263_13085)"/>
<path d="M15.2543 5.11635C16.0355 5.11635 16.6688 4.48306 16.6688 3.70185C16.6688 2.92065 16.0355 2.28735 15.2543 2.28735C14.4731 2.28735 13.8398 2.92065 13.8398 3.70185C13.8398 4.48306 14.4731 5.11635 15.2543 5.11635Z" fill="#9246FD"/>
</g>
<defs>
<linearGradient id="paint0_linear_36263_13085" x1="16.4606" y1="6.30049" x2="6.76137" y2="17.531" gradientUnits="userSpaceOnUse">
<stop stop-color="#9545FD"/>
<stop offset="1" stop-color="#6354FD"/>
</linearGradient>
<clipPath id="clip0_36263_13085">
<rect width="20" height="20" fill="white"/>
</clipPath>
</defs>
</svg>